<?xml version="1.0" standalone="no"?>
<!DOCTYPE svg PUBLIC "-//W3C//DTD SVG 20010904//EN"
 "http://www.w3.org/TR/2001/REC-SVG-20010904/DTD/svg10.dtd">
<svg version="1.0" xmlns="http://www.w3.org/2000/svg"
 width="1536.000000pt" height="1024.000000pt" viewBox="0 0 1536.000000 1024.000000"
 preserveAspectRatio="xMidYMid meet">

<g transform="translate(0.000000,1024.000000) scale(0.100000,-0.100000)"
fill="#000000" stroke="none">
<path d="M7470 7660 c-107 -8 -234 -27 -370 -55 -114 -23 -320 -87 -314 -96 3
-5 -1 -6 -9 -4 -16 7 -249 -85 -315 -124 -26 -15 -56 -30 -66 -34 -11 -4 -58
-31 -105 -59 -298 -178 -580 -455 -765 -753 -101 -162 -256 -522 -270 -624 -2
-15 -6 -33 -9 -41 -13 -31 -46 -189 -63 -300 -13 -83 -18 -176 -18 -335 0
-195 3 -237 27 -370 33 -187 89 -360 171 -530 106 -220 213 -377 372 -544 439
-463 1037 -737 1794 -821 133 -15 412 -15 555 0 637 66 1242 359 1613 780 88
100 207 276 252 375 47 104 111 288 105 303 -2 7 -1 11 4 8 12 -8 70 215 97
379 56 334 58 700 5 1016 -77 453 -273 844 -572 1136 -178 173 -318 274 -534
383 -182 93 -272 128 -475 185 -395 112 -741 151 -1110 125z m650 -249 c153
-22 344 -62 440 -92 215 -65 438 -167 599 -272 51 -34 97 -61 102 -59 5 1 8
-2 7 -6 -2 -5 27 -34 63 -64 531 -452 743 -1163 608 -2043 -79 -515 -255 -862
-588 -1155 -233 -205 -610 -397 -934 -475 -488 -119 -1010 -91 -1525 82 -702
235 -1217 722 -1416 1338 -66 205 -86 333 -86 560 0 240 23 405 90 632 178
608 548 1048 1118 1331 262 130 538 206 887 246 100 11 504 -3 635 -23z"/>
<path d="M6590 6490 c-98 -12 -188 -38 -263 -76 -116 -58 -237 -159 -222 -185
5 -7 4 -10 -3 -5 -13 8 -44 -33 -35 -47 3 -6 1 -7 -5 -3 -15 9 -58 -85 -78
-169 -31 -132 -3 -297 67 -407 82 -127 252 -223 501 -283 284 -68 335 -89 408
-172 121 -137 78 -356 -87 -446 -72 -39 -162 -57 -287 -57 -181 0 -292 39
-451 159 -69 53 -86 61 -123 61 -73 0 -153 -55 -168 -116 -3 -13 -1 -38 5 -57
13 -37 100 -129 165 -173 71 -49 225 -115 329 -142 92 -24 119 -26 272 -26
196 1 271 16 413 85 240 116 372 368 332 635 -36 239 -205 399 -515 485 -243
67 -323 93 -379 121 -104 53 -158 131 -159 233 -1 109 62 199 178 255 151 73
397 63 532 -23 34 -22 123 -111 180 -180 30 -35 85 -36 151 -3 67 34 96 68 94
111 -4 113 -191 291 -389 370 -118 48 -328 72 -463 55z"/>
<path d="M9324 5999 c-53 -15 -73 -49 -136 -235 -78 -232 -327 -965 -334 -984
-5 -13 -7 -12 -15 2 -12 22 -91 214 -135 328 -151 396 -225 573 -256 611 -25
31 -76 49 -138 49 -74 0 -120 -18 -149 -58 -20 -29 -164 -442 -159 -459 1 -4
-3 -18 -11 -31 -7 -13 -10 -28 -8 -35 2 -7 -1 -19 -8 -27 -6 -8 -27 -59 -46
-112 -18 -53 -35 -95 -38 -93 -5 6 -30 81 -66 200 -14 50 -39 131 -55 180 -15
50 -42 137 -59 195 -46 150 -48 155 -90 178 -72 41 -198 22 -222 -32 -10 -20
-8 -36 9 -83 11 -32 46 -143 77 -248 31 -104 71 -237 90 -295 33 -102 81 -258
145 -470 18 -58 41 -120 52 -139 42 -68 122 -90 185 -51 40 24 70 82 116 225
42 128 187 553 218 638 12 31 24 57 28 57 4 0 12 -17 18 -37 6 -21 43 -119 83
-218 40 -99 88 -220 108 -270 150 -377 176 -422 263 -445 59 -16 160 -4 201
24 53 35 106 151 193 426 31 95 182 540 256 750 111 316 126 382 94 427 -27
38 -134 54 -211 32z"/>
</g>
</svg>
